<?xml version="1.0" standalone="no"?>
<!DOCTYPE svg PUBLIC "-//W3C//DTD SVG 20010904//EN"
 "http://www.w3.org/TR/2001/REC-SVG-20010904/DTD/svg10.dtd">
<svg version="1.0" xmlns="http://www.w3.org/2000/svg"
 width="300.000000pt" height="234.000000pt" viewBox="0 0 300.000000 234.000000"
 preserveAspectRatio="xMidYMid meet">
<metadata>
Created by potrace 1.10, written by Peter Selinger 2001-2011
</metadata>
<g transform="translate(0.000000,234.000000) scale(0.100000,-0.100000)"
fill="#000000" stroke="none">
<path d="M730 1804 c-82 -17 -116 -31 -157 -61 -31 -22 -33 -28 -33 -84 0 -52
3 -63 27 -85 29 -27 123 -58 223 -74 191 -29 452 11 522 81 23 23 28 36 28 77
0 40 -5 54 -26 75 -32 32 -111 63 -196 77 -89 14 -311 11 -388 -6z m458 -42
c87 -31 112 -55 112 -107 0 -51 -15 -66 -95 -93 -120 -40 -295 -53 -413 -30
-166 33 -222 63 -222 121 0 44 18 67 68 90 82 36 148 45 322 43 142 -2 174 -5
228 -24z"/>
<path d="M1280 1488 c-89 -45 -198 -61 -385 -55 -166 6 -250 21 -313 58 -18
10 -36 19 -40 19 -14 0 3 -121 18 -131 110 -74 218 -89 490 -71 149 10 213 28
260 72 26 25 30 35 30 84 0 31 -1 55 -2 55 -2 -1 -28 -15 -58 -31z m-584 -68
c125 -29 365 -29 484 1 124 31 120 30 120 9 0 -24 -64 -66 -118 -79 -22 -4
-86 -9 -143 -10 -57 -1 -107 -5 -111 -7 -31 -19 -288 14 -288 36 0 4 -10 10
-22 14 -26 6 -52 42 -42 57 3 6 12 8 20 5 7 -3 52 -14 100 -26z"/>
<path d="M538 1258 c2 -31 11 -61 20 -72 34 -37 125 -71 226 -82 49 -6 58 -4
54 7 -3 8 -2 37 1 66 l7 51 -75 11 c-82 12 -197 47 -206 62 -4 5 -12 9 -18 9
-8 0 -11 -17 -9 -52z m218 -48 c31 0 53 -25 47 -51 -5 -19 -11 -21 -58 -15
-93 11 -188 64 -165 91 8 10 26 8 82 -6 39 -11 82 -19 94 -19z"/>
<path d="M2114 1301 c-2 -2 -4 -91 -4 -198 0 -213 5 -237 59 -288 31 -29 35
-30 147 -33 l114 -4 0 61 0 61 -73 0 c-114 0 -111 -6 -117 215 l-5 187 -58 2
c-32 0 -61 -1 -63 -3z m82 -42 c4 -6 9 -77 11 -158 2 -80 8 -158 14 -173 15
-36 60 -58 120 -58 40 0 49 -4 54 -21 10 -32 -5 -39 -84 -40 -76 -1 -121 18
-152 65 -19 29 -26 360 -9 381 15 18 36 19 46 4z"/>
<path d="M1450 1277 c-66 -44 -75 -74 -73 -240 2 -162 10 -189 66 -231 25 -18
46 -22 163 -26 74 -3 134 -3 134 0 0 10 -104 107 -127 119 -12 6 -35 11 -52
11 -47 0 -61 29 -61 133 0 80 2 90 25 112 24 25 27 25 188 25 151 0 166 -2
191 -21 25 -20 26 -24 26 -119 0 -96 -1 -99 -27 -120 -26 -20 -36 -22 -115
-17 -49 3 -88 3 -88 -1 0 -4 62 -69 138 -145 l137 -137 95 0 95 0 -89 89 -89
90 31 35 c39 45 44 74 40 234 -3 144 -11 164 -78 210 -32 21 -41 22 -265 22
-224 0 -233 -1 -265 -23z m537 -50 l38 -37 2 -147 1 -148 -29 -39 c-16 -22
-29 -48 -29 -58 0 -10 23 -43 50 -73 28 -30 50 -60 50 -65 0 -6 -18 -10 -40
-10 -37 0 -46 7 -140 101 -55 56 -100 105 -100 110 0 9 33 13 76 10 12 -1 37
13 58 32 l36 34 0 94 c0 107 -17 149 -67 166 -15 6 -96 11 -178 11 -223 1
-247 -16 -242 -176 4 -108 18 -136 79 -153 53 -15 103 -48 91 -60 -13 -13
-123 -13 -155 0 -33 12 -87 68 -89 90 -1 9 -1 68 1 131 3 132 16 171 70 208
34 23 38 23 257 20 l223 -3 37 -38z"/>
<path d="M961 1262 c-55 -27 -75 -63 -79 -141 -4 -73 8 -109 48 -146 19 -17
40 -21 164 -25 l141 -5 0 -30 0 -30 -118 -3 -118 -3 3 -62 3 -62 115 -3 c192
-5 246 32 243 164 -1 83 -12 107 -56 134 -27 17 -51 20 -153 20 -109 0 -123 2
-140 21 -14 15 -16 24 -8 37 10 15 34 17 177 20 l165 2 4 61 c1 33 1 63 -1 65
-2 2 -83 4 -180 4 -148 0 -181 -3 -210 -18z m341 -18 c21 -6 24 -37 6 -51 -7
-6 -70 -11 -141 -11 -70 0 -136 -3 -146 -7 -24 -7 -45 -57 -36 -84 11 -36 45
-46 173 -51 l124 -5 34 -37 c24 -27 34 -47 34 -71 0 -44 -30 -97 -70 -124 -29
-20 -46 -23 -131 -23 -90 0 -98 2 -104 20 -12 38 11 50 94 50 86 0 116 13 124
56 3 20 -2 34 -19 51 -21 21 -31 23 -132 23 -60 0 -122 5 -139 10 -44 16 -62
55 -59 128 2 53 7 67 31 92 15 16 37 30 49 32 41 6 291 8 308 2z"/>
<path d="M539 1113 c-6 -50 5 -111 23 -130 36 -39 150 -73 291 -87 67 -7 68
-5 37 77 l-21 55 -65 7 c-88 9 -203 41 -236 66 -16 11 -28 16 -29 12z m98 -78
c12 -3 32 -8 45 -10 30 -6 91 -19 101 -21 4 -1 16 -2 27 -3 27 -1 61 -37 54
-56 -9 -22 -64 -19 -164 10 -60 17 -92 32 -108 50 -24 28 -21 49 6 41 10 -2
27 -7 39 -11z"/>
</g>
</svg>
